<?xml version="1.0" encoding="utf-8"?>
<!-- Generator: Adobe Illustrator 28.1.0, SVG Export Plug-In . SVG Version: 6.00 Build 0)  -->
<svg version="1.1" id="Layer_1" xmlns="http://www.w3.org/2000/svg" xmlns:xlink="http://www.w3.org/1999/xlink" x="0px" y="0px"
	 viewBox="0 0 595.3 527" style="enable-background:new 0 0 595.3 527;" xml:space="preserve">
<style type="text/css">
	.st0{fill:#037AA9;}
	.st1{fill:#272361;}
	.st2{fill:url(#SVGID_1_);}
	.st3{fill:url(#SVGID_00000148657328663949913790000017897487602066193310_);}
	.st4{fill:url(#SVGID_00000123424113323576961760000001945250331381493633_);}
	.st5{fill:url(#SVGID_00000052810769193899655370000006216925156456503988_);}
	.st6{fill:url(#SVGID_00000107563424583209325820000018417390816799409805_);}
	.st7{fill:url(#SVGID_00000093150358359732663540000006832616629505765285_);}
	.st8{fill:url(#SVGID_00000039852317739994962680000000882834670579710609_);}
	.st9{fill:url(#SVGID_00000151518534966909787480000010349662269505064362_);}
	.st10{fill:url(#SVGID_00000081609345954833972790000010125452320531377334_);}
	.st11{fill:url(#SVGID_00000124856699336219998820000009753625410369275031_);}
	.st12{fill:url(#SVGID_00000111191127094632710630000011169411482547560585_);}
	.st13{fill:url(#SVGID_00000027589068111560788300000002307006022449036971_);}
	.st14{fill:url(#SVGID_00000039130040220107750340000003162283211195131554_);}
	.st15{fill:url(#SVGID_00000026858370939626610320000005954112080223449783_);}
	.st16{fill:url(#SVGID_00000076585162299561076900000013098756395207375248_);}
	.st17{fill:url(#SVGID_00000178884294188602737270000000571461153311217555_);}
	.st18{fill:url(#SVGID_00000183937211360238273090000000433811163367288984_);}
	.st19{fill:url(#SVGID_00000044891157599819742620000011729761456242592689_);}
	.st20{fill:url(#SVGID_00000116944830362294433960000000440752227565614510_);}
	.st21{fill:url(#SVGID_00000104708475156623859400000000381225411179310496_);}
	.st22{fill:url(#SVGID_00000098943423414109341350000017975548790612396171_);}
	.st23{fill:url(#SVGID_00000156547743039252543550000003739624854671370928_);}
	.st24{fill:url(#SVGID_00000140709388277472567660000014379853748815320966_);}
	.st25{fill:url(#SVGID_00000086673817212050401930000018396897961824968850_);}
	.st26{fill:url(#SVGID_00000013880561975503651380000011461260798822758295_);}
	.st27{fill:url(#SVGID_00000122680435375319568380000002205960374481453500_);}
	.st28{fill:url(#SVGID_00000168837250188924314380000005216204076768536991_);}
	.st29{fill:url(#SVGID_00000081617601460513204760000000812621195114075836_);}
	.st30{fill:#282561;}
	.st31{font-family:'Constantia';}
	.st32{font-size:16.7686px;}
	.st33{fill:#282560;}
	.st34{font-size:18.8868px;}
</style>
<text transform="matrix(1 0 0 1 -863.1763 -648.6058)" style="font-family:'ArialMT'; font-size:12px;">Lorem ipsum</text>
<g>
	<path class="st0" d="M329,265.1v-99.2v-0.1v-22.6l4.2-5.9h-36l4.2,5.9v22.6v0.1v122.4l-0.8,6.7l32.7-23.5l-3.4-4
		C329.3,266.8,329,265.9,329,265.1z"/>
	<path class="st1" d="M284.6,165.9v-0.1v-22.5l4.2-5.9h-36.1l4.2,5.9v22.5v0.1V265c0,0.9-0.3,1.7-0.8,2.3l-3.4,4l32.7,23.5l-0.8-6.7
		L284.6,165.9L284.6,165.9z"/>
	<g>
		
			<linearGradient id="SVGID_1_" gradientUnits="userSpaceOnUse" x1="244.091" y1="429.0256" x2="293.791" y2="429.0256" gradientTransform="matrix(1 0 0 -1 0 527.2756)">
			<stop  offset="0" style="stop-color:#C3972F"/>
			<stop  offset="0.12" style="stop-color:#C3972F"/>
			<stop  offset="0.32" style="stop-color:#E2BC53"/>
			<stop  offset="0.52" style="stop-color:#FCDF99"/>
			<stop  offset="0.71" style="stop-color:#D8B148"/>
			<stop  offset="0.91" style="stop-color:#B88A2D"/>
			<stop  offset="1" style="stop-color:#B88A2D"/>
		</linearGradient>
		<path class="st2" d="M272.7,111c-7.1,0-14.1-3.8-20.5-11c-5.1-5.9-8-11.8-8.1-12.1l2.1-1l0,0l0,0c0,0.1,2.9,6,7.8,11.6
			c6.5,7.4,13.4,10.8,20.4,10.1l0.1,0c0,0,3-0.1,6.6-2.9c3.4-2.7,7.9-8.3,10.4-20.3l2.3,0.5c-2.2,10.3-6,17.6-11.4,21.8
			c-3.9,3-7.3,3.2-7.8,3.2C274,111,273.3,111,272.7,111z"/>
		
			<linearGradient id="SVGID_00000069360201099258902250000017090081103911574170_" gradientUnits="userSpaceOnUse" x1="292.371" y1="429.0256" x2="342.061" y2="429.0256" gradientTransform="matrix(1 0 0 -1 0 527.2756)">
			<stop  offset="0" style="stop-color:#C3972F"/>
			<stop  offset="0.12" style="stop-color:#C3972F"/>
			<stop  offset="0.32" style="stop-color:#E2BC53"/>
			<stop  offset="0.52" style="stop-color:#FCDF99"/>
			<stop  offset="0.71" style="stop-color:#D8B148"/>
			<stop  offset="0.91" style="stop-color:#B88A2D"/>
			<stop  offset="1" style="stop-color:#B88A2D"/>
		</linearGradient>
		<path style="fill:url(#SVGID_00000069360201099258902250000017090081103911574170_);" d="M313.4,111c-0.6,0-1.2,0-1.8-0.1
			c-0.5,0-3.9-0.2-7.8-3.2c-5.4-4.2-9.2-11.5-11.4-21.8l2.3-0.5c2.5,12,7,17.6,10.4,20.3c3.6,2.8,6.6,2.9,6.6,2.9l0.1,0
			c7,0.7,13.9-2.8,20.4-10.1c4.9-5.6,7.8-11.5,7.8-11.6l2.1,1c-0.1,0.2-3,6.2-8.1,12.1C327.6,107.2,320.5,111,313.4,111z"/>
		
			<linearGradient id="SVGID_00000170968408622608664280000004788633804691748024_" gradientUnits="userSpaceOnUse" x1="270.441" y1="428.3406" x2="316.161" y2="428.3406" gradientTransform="matrix(1 0 0 -1 0 527.2756)">
			<stop  offset="0" style="stop-color:#C3972F"/>
			<stop  offset="0.12" style="stop-color:#C3972F"/>
			<stop  offset="0.32" style="stop-color:#E2BC53"/>
			<stop  offset="0.52" style="stop-color:#FCDF99"/>
			<stop  offset="0.71" style="stop-color:#D8B148"/>
			<stop  offset="0.91" style="stop-color:#B88A2D"/>
			<stop  offset="1" style="stop-color:#B88A2D"/>
		</linearGradient>
		<path style="fill:url(#SVGID_00000170968408622608664280000004788633804691748024_);" d="M292.4,111.4c-1.4,0-4.1-0.3-7.4-2.2
			c-6-3.6-11-10.9-14.6-21.6l2.2-0.8c4.3,12.6,9.7,18,13.4,20.3c4,2.4,7,2,7,2l0.2,0c14.4-0.4,20.6-22.4,20.7-22.6l2.2,0.6
			c-0.1,0.2-1.7,6-5.2,11.9c-4.8,7.9-10.9,12.2-17.5,12.4C293.2,111.4,292.9,111.4,292.4,111.4z"/>
		
			<linearGradient id="SVGID_00000181780059958270041990000002868414262169797799_" gradientUnits="userSpaceOnUse" x1="250.881" y1="428.1156" x2="271.459" y2="428.1156" gradientTransform="matrix(1 0 0 -1 0 527.2756)">
			<stop  offset="0" style="stop-color:#C3972F"/>
			<stop  offset="0.12" style="stop-color:#C3972F"/>
			<stop  offset="0.32" style="stop-color:#E2BC53"/>
			<stop  offset="0.52" style="stop-color:#FCDF99"/>
			<stop  offset="0.71" style="stop-color:#D8B148"/>
			<stop  offset="0.91" style="stop-color:#B88A2D"/>
			<stop  offset="1" style="stop-color:#B88A2D"/>
		</linearGradient>
		<path style="fill:url(#SVGID_00000181780059958270041990000002868414262169797799_);" d="M254.3,111.6c-1.1,0-2.3-0.1-3.5-0.3
			l0.4-2.3c4.9,0.8,8.9-0.2,11.8-2.9c6.7-6.1,6.1-19.2,6.1-19.4l2.3-0.1c0,0.6,0.7,14.3-6.9,21.2
			C261.9,110.4,258.4,111.6,254.3,111.6z"/>
		
			<linearGradient id="SVGID_00000154390562550456582280000000017357548197116302_" gradientUnits="userSpaceOnUse" x1="314.6837" y1="428.3106" x2="335.2711" y2="428.3106" gradientTransform="matrix(1 0 0 -1 0 527.2756)">
			<stop  offset="0" style="stop-color:#C3972F"/>
			<stop  offset="0.12" style="stop-color:#C3972F"/>
			<stop  offset="0.32" style="stop-color:#E2BC53"/>
			<stop  offset="0.52" style="stop-color:#FCDF99"/>
			<stop  offset="0.71" style="stop-color:#D8B148"/>
			<stop  offset="0.91" style="stop-color:#B88A2D"/>
			<stop  offset="1" style="stop-color:#B88A2D"/>
		</linearGradient>
		<path style="fill:url(#SVGID_00000154390562550456582280000000017357548197116302_);" d="M331.8,111.4c-4.1,0-7.5-1.2-10.2-3.7
			c-7.5-6.9-6.9-20.6-6.9-21.2l2.3,0.1l-1.1-0.1l1.2,0.1c0,0.1-0.6,13.2,6.1,19.4c2.9,2.7,6.9,3.6,11.8,2.9l0.4,2.3
			C334.1,111.3,332.9,111.4,331.8,111.4z"/>
		
			<linearGradient id="SVGID_00000056420635328033584030000009685752293949430151_" gradientUnits="userSpaceOnUse" x1="262.0963" y1="395.8021" x2="323.1956" y2="399.211" gradientTransform="matrix(1 0 0 -1 0 527.2756)">
			<stop  offset="0" style="stop-color:#C3972F"/>
			<stop  offset="0.12" style="stop-color:#C3972F"/>
			<stop  offset="0.32" style="stop-color:#E2BC53"/>
			<stop  offset="0.52" style="stop-color:#FCDF99"/>
			<stop  offset="0.71" style="stop-color:#D8B148"/>
			<stop  offset="0.91" style="stop-color:#B88A2D"/>
			<stop  offset="1" style="stop-color:#B88A2D"/>
		</linearGradient>
		
			<rect x="252.6" y="128.7" style="fill:url(#SVGID_00000056420635328033584030000009685752293949430151_);" width="80.9" height="2.1"/>
		
			<linearGradient id="SVGID_00000031925549073744628500000016090856914926418848_" gradientUnits="userSpaceOnUse" x1="261.7728" y1="401.5996" x2="322.8722" y2="405.0086" gradientTransform="matrix(1 0 0 -1 0 527.2756)">
			<stop  offset="0" style="stop-color:#C3972F"/>
			<stop  offset="0.12" style="stop-color:#C3972F"/>
			<stop  offset="0.32" style="stop-color:#E2BC53"/>
			<stop  offset="0.52" style="stop-color:#FCDF99"/>
			<stop  offset="0.71" style="stop-color:#D8B148"/>
			<stop  offset="0.91" style="stop-color:#B88A2D"/>
			<stop  offset="1" style="stop-color:#B88A2D"/>
		</linearGradient>
		<path style="fill:url(#SVGID_00000031925549073744628500000016090856914926418848_);" d="M256.9,123.2c-1.5,0-2.8,1.2-2.8,2.8
			s1.2,2.8,2.8,2.8c1.5,0,2.8-1.2,2.8-2.8S258.4,123.2,256.9,123.2z M256.9,127.1c-0.6,0-1.2-0.5-1.2-1.2s0.5-1.2,1.2-1.2
			s1.2,0.5,1.2,1.2C258,126.6,257.5,127.1,256.9,127.1z"/>
		
			<linearGradient id="SVGID_00000095310257337552422710000006818820875007458179_" gradientUnits="userSpaceOnUse" x1="261.7978" y1="401.1519" x2="322.8972" y2="404.5609" gradientTransform="matrix(1 0 0 -1 0 527.2756)">
			<stop  offset="0" style="stop-color:#C3972F"/>
			<stop  offset="0.12" style="stop-color:#C3972F"/>
			<stop  offset="0.32" style="stop-color:#E2BC53"/>
			<stop  offset="0.52" style="stop-color:#FCDF99"/>
			<stop  offset="0.71" style="stop-color:#D8B148"/>
			<stop  offset="0.91" style="stop-color:#B88A2D"/>
			<stop  offset="1" style="stop-color:#B88A2D"/>
		</linearGradient>
		<path style="fill:url(#SVGID_00000095310257337552422710000006818820875007458179_);" d="M264.9,123.2c-1.5,0-2.8,1.2-2.8,2.8
			s1.2,2.8,2.8,2.8s2.8-1.2,2.8-2.8S266.4,123.2,264.9,123.2z M264.9,127.1c-0.6,0-1.2-0.5-1.2-1.2s0.5-1.2,1.2-1.2s1.2,0.5,1.2,1.2
			C266.1,126.6,265.6,127.1,264.9,127.1z"/>
		
			<linearGradient id="SVGID_00000054957340819041379390000001671625924318257597_" gradientUnits="userSpaceOnUse" x1="261.8228" y1="400.7041" x2="322.9221" y2="404.1131" gradientTransform="matrix(1 0 0 -1 0 527.2756)">
			<stop  offset="0" style="stop-color:#C3972F"/>
			<stop  offset="0.12" style="stop-color:#C3972F"/>
			<stop  offset="0.32" style="stop-color:#E2BC53"/>
			<stop  offset="0.52" style="stop-color:#FCDF99"/>
			<stop  offset="0.71" style="stop-color:#D8B148"/>
			<stop  offset="0.91" style="stop-color:#B88A2D"/>
			<stop  offset="1" style="stop-color:#B88A2D"/>
		</linearGradient>
		<path style="fill:url(#SVGID_00000054957340819041379390000001671625924318257597_);" d="M273,123.2c-1.5,0-2.8,1.2-2.8,2.8
			s1.2,2.8,2.8,2.8s2.8-1.2,2.8-2.8S274.5,123.2,273,123.2z M273,127.1c-0.6,0-1.2-0.5-1.2-1.2s0.5-1.2,1.2-1.2s1.2,0.5,1.2,1.2
			C274.1,126.6,273.6,127.1,273,127.1z"/>
		
			<linearGradient id="SVGID_00000030476415530071037340000012558555954060771497_" gradientUnits="userSpaceOnUse" x1="261.8478" y1="400.2564" x2="322.9471" y2="403.6654" gradientTransform="matrix(1 0 0 -1 0 527.2756)">
			<stop  offset="0" style="stop-color:#C3972F"/>
			<stop  offset="0.12" style="stop-color:#C3972F"/>
			<stop  offset="0.32" style="stop-color:#E2BC53"/>
			<stop  offset="0.52" style="stop-color:#FCDF99"/>
			<stop  offset="0.71" style="stop-color:#D8B148"/>
			<stop  offset="0.91" style="stop-color:#B88A2D"/>
			<stop  offset="1" style="stop-color:#B88A2D"/>
		</linearGradient>
		<path style="fill:url(#SVGID_00000030476415530071037340000012558555954060771497_);" d="M281,123.2c-1.5,0-2.8,1.2-2.8,2.8
			s1.2,2.8,2.8,2.8s2.8-1.2,2.8-2.8S282.5,123.2,281,123.2z M281,127.1c-0.6,0-1.2-0.5-1.2-1.2s0.5-1.2,1.2-1.2s1.2,0.5,1.2,1.2
			C282.2,126.6,281.7,127.1,281,127.1z"/>
		
			<linearGradient id="SVGID_00000001633500229398138740000011825213913882611118_" gradientUnits="userSpaceOnUse" x1="261.8727" y1="399.8092" x2="322.972" y2="403.2181" gradientTransform="matrix(1 0 0 -1 0 527.2756)">
			<stop  offset="0" style="stop-color:#C3972F"/>
			<stop  offset="0.12" style="stop-color:#C3972F"/>
			<stop  offset="0.32" style="stop-color:#E2BC53"/>
			<stop  offset="0.52" style="stop-color:#FCDF99"/>
			<stop  offset="0.71" style="stop-color:#D8B148"/>
			<stop  offset="0.91" style="stop-color:#B88A2D"/>
			<stop  offset="1" style="stop-color:#B88A2D"/>
		</linearGradient>
		<path style="fill:url(#SVGID_00000001633500229398138740000011825213913882611118_);" d="M289.1,123.2c-1.5,0-2.8,1.2-2.8,2.8
			s1.2,2.8,2.8,2.8s2.8-1.2,2.8-2.8S290.6,123.2,289.1,123.2z M289.1,127.1c-0.6,0-1.2-0.5-1.2-1.2s0.5-1.2,1.2-1.2s1.2,0.5,1.2,1.2
			C290.2,126.6,289.7,127.1,289.1,127.1z"/>
		
			<linearGradient id="SVGID_00000115474924506762726470000013645912579855666822_" gradientUnits="userSpaceOnUse" x1="261.8976" y1="399.3614" x2="322.997" y2="402.7704" gradientTransform="matrix(1 0 0 -1 0 527.2756)">
			<stop  offset="0" style="stop-color:#C3972F"/>
			<stop  offset="0.12" style="stop-color:#C3972F"/>
			<stop  offset="0.32" style="stop-color:#E2BC53"/>
			<stop  offset="0.52" style="stop-color:#FCDF99"/>
			<stop  offset="0.71" style="stop-color:#D8B148"/>
			<stop  offset="0.91" style="stop-color:#B88A2D"/>
			<stop  offset="1" style="stop-color:#B88A2D"/>
		</linearGradient>
		<path style="fill:url(#SVGID_00000115474924506762726470000013645912579855666822_);" d="M297.1,123.2c-1.5,0-2.8,1.2-2.8,2.8
			s1.2,2.8,2.8,2.8s2.8-1.2,2.8-2.8S298.6,123.2,297.1,123.2z M297.1,127.1c-0.6,0-1.2-0.5-1.2-1.2s0.5-1.2,1.2-1.2s1.2,0.5,1.2,1.2
			C298.3,126.6,297.8,127.1,297.1,127.1z"/>
		
			<linearGradient id="SVGID_00000003789621178589604110000001223405478159486382_" gradientUnits="userSpaceOnUse" x1="261.9226" y1="398.9137" x2="323.0219" y2="402.3227" gradientTransform="matrix(1 0 0 -1 0 527.2756)">
			<stop  offset="0" style="stop-color:#C3972F"/>
			<stop  offset="0.12" style="stop-color:#C3972F"/>
			<stop  offset="0.32" style="stop-color:#E2BC53"/>
			<stop  offset="0.52" style="stop-color:#FCDF99"/>
			<stop  offset="0.71" style="stop-color:#D8B148"/>
			<stop  offset="0.91" style="stop-color:#B88A2D"/>
			<stop  offset="1" style="stop-color:#B88A2D"/>
		</linearGradient>
		<path style="fill:url(#SVGID_00000003789621178589604110000001223405478159486382_);" d="M305.2,123.2c-1.5,0-2.8,1.2-2.8,2.8
			s1.2,2.8,2.8,2.8s2.8-1.2,2.8-2.8S306.7,123.2,305.2,123.2z M305.2,127.1c-0.6,0-1.2-0.5-1.2-1.2s0.5-1.2,1.2-1.2s1.2,0.5,1.2,1.2
			C306.3,126.6,305.8,127.1,305.2,127.1z"/>
		
			<linearGradient id="SVGID_00000042720612464466660200000000724541662767268786_" gradientUnits="userSpaceOnUse" x1="261.9476" y1="398.4659" x2="323.047" y2="401.8749" gradientTransform="matrix(1 0 0 -1 0 527.2756)">
			<stop  offset="0" style="stop-color:#C3972F"/>
			<stop  offset="0.12" style="stop-color:#C3972F"/>
			<stop  offset="0.32" style="stop-color:#E2BC53"/>
			<stop  offset="0.52" style="stop-color:#FCDF99"/>
			<stop  offset="0.71" style="stop-color:#D8B148"/>
			<stop  offset="0.91" style="stop-color:#B88A2D"/>
			<stop  offset="1" style="stop-color:#B88A2D"/>
		</linearGradient>
		<path style="fill:url(#SVGID_00000042720612464466660200000000724541662767268786_);" d="M313.2,123.2c-1.5,0-2.8,1.2-2.8,2.8
			s1.2,2.8,2.8,2.8s2.8-1.2,2.8-2.8S314.7,123.2,313.2,123.2z M313.2,127.1c-0.6,0-1.2-0.5-1.2-1.2s0.5-1.2,1.2-1.2s1.2,0.5,1.2,1.2
			C314.4,126.6,313.9,127.1,313.2,127.1z"/>
		
			<linearGradient id="SVGID_00000181079694617875136100000006675598282305122728_" gradientUnits="userSpaceOnUse" x1="261.9727" y1="398.0182" x2="323.072" y2="401.4272" gradientTransform="matrix(1 0 0 -1 0 527.2756)">
			<stop  offset="0" style="stop-color:#C3972F"/>
			<stop  offset="0.12" style="stop-color:#C3972F"/>
			<stop  offset="0.32" style="stop-color:#E2BC53"/>
			<stop  offset="0.52" style="stop-color:#FCDF99"/>
			<stop  offset="0.71" style="stop-color:#D8B148"/>
			<stop  offset="0.91" style="stop-color:#B88A2D"/>
			<stop  offset="1" style="stop-color:#B88A2D"/>
		</linearGradient>
		<path style="fill:url(#SVGID_00000181079694617875136100000006675598282305122728_);" d="M321.3,123.2c-1.5,0-2.8,1.2-2.8,2.8
			s1.2,2.8,2.8,2.8s2.8-1.2,2.8-2.8S322.8,123.2,321.3,123.2z M321.3,127.1c-0.6,0-1.2-0.5-1.2-1.2s0.5-1.2,1.2-1.2s1.2,0.5,1.2,1.2
			C322.4,126.6,321.9,127.1,321.3,127.1z"/>
		
			<linearGradient id="SVGID_00000150083196210915465580000006693806874707354510_" gradientUnits="userSpaceOnUse" x1="261.9976" y1="397.5705" x2="323.097" y2="400.9794" gradientTransform="matrix(1 0 0 -1 0 527.2756)">
			<stop  offset="0" style="stop-color:#C3972F"/>
			<stop  offset="0.12" style="stop-color:#C3972F"/>
			<stop  offset="0.32" style="stop-color:#E2BC53"/>
			<stop  offset="0.52" style="stop-color:#FCDF99"/>
			<stop  offset="0.71" style="stop-color:#D8B148"/>
			<stop  offset="0.91" style="stop-color:#B88A2D"/>
			<stop  offset="1" style="stop-color:#B88A2D"/>
		</linearGradient>
		<path style="fill:url(#SVGID_00000150083196210915465580000006693806874707354510_);" d="M329.3,123.2c-1.5,0-2.8,1.2-2.8,2.8
			s1.2,2.8,2.8,2.8s2.8-1.2,2.8-2.8S330.8,123.2,329.3,123.2z M329.3,127.1c-0.6,0-1.2-0.5-1.2-1.2s0.5-1.2,1.2-1.2s1.2,0.5,1.2,1.2
			C330.5,126.6,330,127.1,329.3,127.1z"/>
		
			<linearGradient id="SVGID_00000136380178441284039120000002310399688614250900_" gradientUnits="userSpaceOnUse" x1="261.6671" y1="403.4932" x2="322.7664" y2="406.9021" gradientTransform="matrix(1 0 0 -1 0 527.2756)">
			<stop  offset="0" style="stop-color:#C3972F"/>
			<stop  offset="0.12" style="stop-color:#C3972F"/>
			<stop  offset="0.32" style="stop-color:#E2BC53"/>
			<stop  offset="0.52" style="stop-color:#FCDF99"/>
			<stop  offset="0.71" style="stop-color:#D8B148"/>
			<stop  offset="0.91" style="stop-color:#B88A2D"/>
			<stop  offset="1" style="stop-color:#B88A2D"/>
		</linearGradient>
		
			<rect x="252.6" y="120.9" style="fill:url(#SVGID_00000136380178441284039120000002310399688614250900_);" width="80.9" height="2.3"/>
		
			<linearGradient id="SVGID_00000129907567606509062150000016910049092991356594_" gradientUnits="userSpaceOnUse" x1="332.471" y1="425.7906" x2="342.741" y2="425.7906" gradientTransform="matrix(1 0 0 -1 0 527.2756)">
			<stop  offset="0" style="stop-color:#C3972F"/>
			<stop  offset="0.12" style="stop-color:#C3972F"/>
			<stop  offset="0.32" style="stop-color:#E2BC53"/>
			<stop  offset="0.52" style="stop-color:#FCDF99"/>
			<stop  offset="0.71" style="stop-color:#D8B148"/>
			<stop  offset="0.91" style="stop-color:#B88A2D"/>
			<stop  offset="1" style="stop-color:#B88A2D"/>
		</linearGradient>
		<polygon style="fill:url(#SVGID_00000129907567606509062150000016910049092991356594_);" points="334.6,115 332.5,115 340.5,88 
			342.7,88 		"/>
		
			<linearGradient id="SVGID_00000181810146851045238090000012343599864629692566_" gradientUnits="userSpaceOnUse" x1="309.661" y1="425.6106" x2="316.761" y2="425.6106" gradientTransform="matrix(1 0 0 -1 0 527.2756)">
			<stop  offset="0" style="stop-color:#C3972F"/>
			<stop  offset="0.12" style="stop-color:#C3972F"/>
			<stop  offset="0.32" style="stop-color:#E2BC53"/>
			<stop  offset="0.52" style="stop-color:#FCDF99"/>
			<stop  offset="0.71" style="stop-color:#D8B148"/>
			<stop  offset="0.91" style="stop-color:#B88A2D"/>
			<stop  offset="1" style="stop-color:#B88A2D"/>
		</linearGradient>
		<polygon style="fill:url(#SVGID_00000181810146851045238090000012343599864629692566_);" points="311.8,115 309.7,115 314.5,88.3 
			316.8,88.3 		"/>
		<g>
			
				<linearGradient id="SVGID_00000112598579683062756730000010058659910072199821_" gradientUnits="userSpaceOnUse" x1="243.761" y1="425.5806" x2="254.031" y2="425.5806" gradientTransform="matrix(1 0 0 -1 0 527.2756)">
				<stop  offset="0" style="stop-color:#C3972F"/>
				<stop  offset="0.12" style="stop-color:#C3972F"/>
				<stop  offset="0.32" style="stop-color:#E2BC53"/>
				<stop  offset="0.52" style="stop-color:#FCDF99"/>
				<stop  offset="0.71" style="stop-color:#D8B148"/>
				<stop  offset="0.91" style="stop-color:#B88A2D"/>
				<stop  offset="1" style="stop-color:#B88A2D"/>
			</linearGradient>
			<polygon style="fill:url(#SVGID_00000112598579683062756730000010058659910072199821_);" points="251.9,115.2 254,115.2 
				246,88.2 243.8,88.2 			"/>
			
				<linearGradient id="SVGID_00000078041133878372947210000008438824857840444858_" gradientUnits="userSpaceOnUse" x1="269.741" y1="425.4006" x2="276.841" y2="425.4006" gradientTransform="matrix(1 0 0 -1 0 527.2756)">
				<stop  offset="0" style="stop-color:#C3972F"/>
				<stop  offset="0.12" style="stop-color:#C3972F"/>
				<stop  offset="0.32" style="stop-color:#E2BC53"/>
				<stop  offset="0.52" style="stop-color:#FCDF99"/>
				<stop  offset="0.71" style="stop-color:#D8B148"/>
				<stop  offset="0.91" style="stop-color:#B88A2D"/>
				<stop  offset="1" style="stop-color:#B88A2D"/>
			</linearGradient>
			<polygon style="fill:url(#SVGID_00000078041133878372947210000008438824857840444858_);" points="274.7,115.2 276.8,115.2 
				272,88.6 269.7,88.6 			"/>
		</g>
		
			<linearGradient id="SVGID_00000134215148671627556960000002463303694392460680_" gradientUnits="userSpaceOnUse" x1="291.7879" y1="425.6306" x2="294.244" y2="425.6306" gradientTransform="matrix(1 0 0 -1 0 527.2756)">
			<stop  offset="0" style="stop-color:#C3972F"/>
			<stop  offset="0.12" style="stop-color:#C3972F"/>
			<stop  offset="0.32" style="stop-color:#E2BC53"/>
			<stop  offset="0.52" style="stop-color:#FCDF99"/>
			<stop  offset="0.71" style="stop-color:#D8B148"/>
			<stop  offset="0.91" style="stop-color:#B88A2D"/>
			<stop  offset="1" style="stop-color:#B88A2D"/>
		</linearGradient>
		<polygon style="fill:url(#SVGID_00000134215148671627556960000002463303694392460680_);" points="292.1,115.2 294.2,115.1 
			294,88.1 291.8,88.1 		"/>
		
			<radialGradient id="SVGID_00000142857803406195069070000008725177009726525585_" cx="243.871" cy="441.9856" r="3.2748" gradientTransform="matrix(1 0 0 -1 0 527.2756)" gradientUnits="userSpaceOnUse">
			<stop  offset="0.1625" style="stop-color:#FCDF99"/>
			<stop  offset="1" style="stop-color:#B88A2D"/>
		</radialGradient>
		<circle style="fill:url(#SVGID_00000142857803406195069070000008725177009726525585_);" cx="243.9" cy="85.3" r="3.3"/>
		
			<radialGradient id="SVGID_00000146462131361846527970000017564974120181254813_" cx="270.2711" cy="441.9856" r="3.2743" gradientTransform="matrix(1 0 0 -1 0 527.2756)" gradientUnits="userSpaceOnUse">
			<stop  offset="0.1625" style="stop-color:#FCDF99"/>
			<stop  offset="1" style="stop-color:#B88A2D"/>
		</radialGradient>
		<circle style="fill:url(#SVGID_00000146462131361846527970000017564974120181254813_);" cx="270.3" cy="85.3" r="3.3"/>
		
			<radialGradient id="SVGID_00000044156003680272707600000009323452706231487655_" cx="293.0811" cy="441.9856" r="3.2737" gradientTransform="matrix(1 0 0 -1 0 527.2756)" gradientUnits="userSpaceOnUse">
			<stop  offset="0.1625" style="stop-color:#FCDF99"/>
			<stop  offset="1" style="stop-color:#B88A2D"/>
		</radialGradient>
		<circle style="fill:url(#SVGID_00000044156003680272707600000009323452706231487655_);" cx="293.1" cy="85.3" r="3.3"/>
		
			<radialGradient id="SVGID_00000137818785307528126200000008252904684945024669_" cx="315.8911" cy="441.9856" r="3.27" gradientTransform="matrix(1 0 0 -1 0 527.2756)" gradientUnits="userSpaceOnUse">
			<stop  offset="0.1625" style="stop-color:#FCDF99"/>
			<stop  offset="1" style="stop-color:#B88A2D"/>
		</radialGradient>
		<circle style="fill:url(#SVGID_00000137818785307528126200000008252904684945024669_);" cx="315.9" cy="85.3" r="3.3"/>
		
			<radialGradient id="SVGID_00000068637551319817508460000011161056029794762897_" cx="342.501" cy="441.9856" r="3.27" gradientTransform="matrix(1 0 0 -1 0 527.2756)" gradientUnits="userSpaceOnUse">
			<stop  offset="0.1625" style="stop-color:#FCDF99"/>
			<stop  offset="1" style="stop-color:#B88A2D"/>
		</radialGradient>
		<circle style="fill:url(#SVGID_00000068637551319817508460000011161056029794762897_);" cx="342.5" cy="85.3" r="3.3"/>
		
			<linearGradient id="SVGID_00000042729221772354383300000011248417043960841347_" gradientUnits="userSpaceOnUse" x1="251.791" y1="410.8356" x2="334.5811" y2="410.8356" gradientTransform="matrix(1 0 0 -1 0 527.2756)">
			<stop  offset="0" style="stop-color:#C3972F"/>
			<stop  offset="0.12" style="stop-color:#C3972F"/>
			<stop  offset="0.32" style="stop-color:#E2BC53"/>
			<stop  offset="0.52" style="stop-color:#FCDF99"/>
			<stop  offset="0.71" style="stop-color:#D8B148"/>
			<stop  offset="0.91" style="stop-color:#B88A2D"/>
			<stop  offset="1" style="stop-color:#B88A2D"/>
		</linearGradient>
		<polygon style="fill:url(#SVGID_00000042729221772354383300000011248417043960841347_);" points="334.6,115 251.8,115 
			252.6,117.9 333.9,117.9 		"/>
	</g>
</g>
<g>
	<g>
		<path class="st1" d="M87.7,329.5v55.8h-7.9v-55.8H87.7z"/>
		<path class="st1" d="M94.7,385.4v-55.8h9.1c2,7.9,8.1,35.4,8.7,38.4h0.1c-0.4-6.9-0.4-14.7-0.4-23.9v-14.5h7.3v55.8h-8.8
			c-1.6-6.7-8.4-37.3-8.9-39.6h-0.1c0.4,6.8,0.3,14.3,0.3,24.4v15.3L94.7,385.4L94.7,385.4z"/>
		<path class="st1" d="M126.4,329.5h19.9v8h-12v14.7h11.5v8h-11.5v25.2h-7.9V329.5z"/>
		<path class="st1" d="M158.5,329.5v55.8h-7.9v-55.8H158.5z"/>
		<path class="st1" d="M165.5,385.4v-55.8h9.1c2,7.9,8.1,35.4,8.7,38.4h0.1C183,361,183,353.2,183,344v-14.5h7.3v55.8h-8.8
			c-1.6-6.7-8.4-37.3-8.9-39.6h-0.1c0.4,6.8,0.3,14.3,0.3,24.4v15.3L165.5,385.4L165.5,385.4z"/>
		<path class="st1" d="M205.1,329.5v55.8h-7.9v-55.8H205.1z"/>
		<path class="st1" d="M216.8,337.5h-8.2v-8H233v8h-8.3v47.8h-7.9L216.8,337.5L216.8,337.5z"/>
		<path class="st1" d="M255.5,359.9h-11.2v17.6h13l-1,7.9h-19.8v-55.8h19.8v8h-11.9v14.4h11.2L255.5,359.9L255.5,359.9z"/>
		<path class="st1" d="M290.4,359.9h-11.2v17.6h13l-1,7.9h-19.8v-55.8H291v8h-11.9v14.4h11.2L290.4,359.9L290.4,359.9z"/>
		<path class="st1" d="M296.2,329.5h10.9c10.9,0,13.5,6.1,13.5,16.5v21.4c0,8.5-1.3,17.9-13.5,17.9h-10.9L296.2,329.5L296.2,329.5z
			 M304.1,378h2.5c5.2,0,6-3.6,6-9.4v-23.3c0-5.1-0.8-8.4-6-8.4h-2.5V378z"/>
		<path class="st1" d="M334.1,329.5V372c0,4.1,1.2,6.4,4.3,6.4c3.1,0,4.1-2.6,4.1-6.4v-42.5h7.9v42.3c0,8.8-3.6,14.4-12.2,14.4
			c-8.1,0-12-4.8-12-14.3v-42.3L334.1,329.5L334.1,329.5z"/>
		<path class="st1" d="M379.2,368.7v2.2c0,6.4-1,15.3-11.8,15.3c-9.5,0-11.5-6.5-11.5-15V343c0-8.6,3.6-14.3,11.6-14.3
			c9.6,0,11.4,6.9,11.4,14.7v2.5h-7.9v-3.5c0-3.7-0.8-5.8-3.5-5.8c-2.7,0-3.6,2-3.6,5.9v29.5c0,3.6,0.7,6.5,3.7,6.5
			c2.9,0,3.6-2.5,3.6-6.6v-3.1L379.2,368.7L379.2,368.7z"/>
		<path class="st1" d="M390.7,370.4l-1.8,14.9h-8l8.2-55.8h11.1l8.5,55.8h-8.2l-2-14.9H390.7z M397.6,362.5
			c-1.2-9.5-2.3-18.5-2.9-24.8h-0.3c-0.2,4.6-1.8,16.6-2.8,24.8H397.6z"/>
		<path class="st1" d="M417.7,337.5h-8.2v-8h24.4v8h-8.3v47.8h-7.9L417.7,337.5L417.7,337.5z"/>
		<path class="st1" d="M445.1,329.5v55.8h-7.9v-55.8H445.1z"/>
		<path class="st1" d="M475.9,344.3v26.1c0,10.7-4.2,15.8-12.8,15.8c-8.3,0-12-5.2-12-15.6v-26.3c0-10.7,4.9-15.6,12.5-15.6
			C471.3,328.7,475.9,333.6,475.9,344.3z M459,343.5v28.1c0,4.6,1.5,6.8,4.4,6.8c3.1,0,4.4-2,4.4-6.9v-28c0-4.4-1.2-6.9-4.5-6.9
			C460.6,336.5,459,338.8,459,343.5z"/>
		<path class="st1" d="M481.7,385.4v-55.8h9.1c2,7.9,8.1,35.4,8.7,38.4h0.1c-0.4-6.9-0.4-14.7-0.4-23.9v-14.5h7.3v55.8h-8.8
			c-1.6-6.7-8.4-37.3-8.9-39.6h-0.1c0.4,6.8,0.3,14.3,0.3,24.4v15.3L481.7,385.4L481.7,385.4z"/>
	</g>
</g>
<text transform="matrix(1 0 0 1 94.1284 416.8357)" class="st30 st31 st32">AN AFFILIATE OF INFINITE GROUP OF COMPANIES</text>
<g>
	<text transform="matrix(0.9158 0 0 1 152.8596 446.5519)" class="st33 st31 st34">UAE  |</text>
	<text transform="matrix(0.9158 0 0 1 281.8889 446.5519)" class="st33 st31 st34">INDIA | SRI LANKA</text>
	<text transform="matrix(0.9158 0 0 1 207.1199 446.5519)" class="st33 st31 st34">QATAR  |</text>
</g>
</svg>
