<?xml version="1.0" encoding="utf-8"?>
<!-- Generator: Adobe Illustrator 25.1.0, SVG Export Plug-In . SVG Version: 6.00 Build 0)  -->
<svg version="1.1" id="Layer_1" xmlns="http://www.w3.org/2000/svg" xmlns:xlink="http://www.w3.org/1999/xlink" x="0px" y="0px"
	 viewBox="0 0 595.3 527" style="enable-background:new 0 0 595.3 527;" xml:space="preserve">
<style type="text/css">
	.st0{fill:#037AA9;}
	.st1{fill:#272361;}
	.st2{fill:url(#SVGID_1_);}
	.st3{fill:url(#SVGID_2_);}
	.st4{fill:url(#SVGID_3_);}
	.st5{fill:url(#SVGID_4_);}
	.st6{fill:url(#SVGID_5_);}
	.st7{fill:url(#SVGID_6_);}
	.st8{fill:url(#SVGID_7_);}
	.st9{fill:url(#SVGID_8_);}
	.st10{fill:url(#SVGID_9_);}
	.st11{fill:url(#SVGID_10_);}
	.st12{fill:url(#SVGID_11_);}
	.st13{fill:url(#SVGID_12_);}
	.st14{fill:url(#SVGID_13_);}
	.st15{fill:url(#SVGID_14_);}
	.st16{fill:url(#SVGID_15_);}
	.st17{fill:url(#SVGID_16_);}
	.st18{fill:url(#SVGID_17_);}
	.st19{fill:url(#SVGID_18_);}
	.st20{fill:url(#SVGID_19_);}
	.st21{fill:url(#SVGID_20_);}
	.st22{fill:url(#SVGID_21_);}
	.st23{fill:url(#SVGID_22_);}
	.st24{fill:url(#SVGID_23_);}
	.st25{fill:url(#SVGID_24_);}
	.st26{fill:url(#SVGID_25_);}
	.st27{fill:url(#SVGID_26_);}
	.st28{fill:url(#SVGID_27_);}
	.st29{fill:url(#SVGID_28_);}
	.st30{fill:#282561;}
	.st31{font-family:'Constantia';}
	.st32{font-size:16.7686px;}
	.st33{fill:#282560;}
	.st34{font-size:18.8868px;}
</style>
<text transform="matrix(1 0 0 1 -863.1763 -648.6058)" style="font-family:'ArialMT'; font-size:12px;">Lorem ipsum</text>
<g>
	<path class="st0" d="M121.6,339.1v-99.2v-0.1v-22.6l4.2-5.9h-36l4.2,5.9v22.6v0.1v122.4l-0.8,6.7l32.7-23.5l-3.4-4
		C121.9,340.8,121.6,339.9,121.6,339.1z"/>
	<path class="st1" d="M77.2,239.9v-0.1v-22.5l4.2-5.9H45.3l4.2,5.9v22.5v0.1V339c0,0.9-0.3,1.7-0.8,2.3l-3.4,4L78,368.8l-0.8-6.7
		L77.2,239.9L77.2,239.9z"/>
	<g>
		
			<linearGradient id="SVGID_1_" gradientUnits="userSpaceOnUse" x1="36.7128" y1="486.8435" x2="86.4128" y2="486.8435" gradientTransform="matrix(1 0 0 1 0 -314.6142)">
			<stop  offset="0" style="stop-color:#C3972F"/>
			<stop  offset="0.12" style="stop-color:#C3972F"/>
			<stop  offset="0.32" style="stop-color:#E2BC53"/>
			<stop  offset="0.52" style="stop-color:#FCDF99"/>
			<stop  offset="0.71" style="stop-color:#D8B148"/>
			<stop  offset="0.91" style="stop-color:#B88A2D"/>
			<stop  offset="1" style="stop-color:#B88A2D"/>
		</linearGradient>
		<path class="st2" d="M65.3,185c-7.1,0-14.1-3.8-20.5-11c-5.1-5.9-8-11.8-8.1-12.1l2.1-1l0,0l0,0c0,0.1,2.9,6,7.8,11.6
			c6.5,7.4,13.4,10.8,20.4,10.1h0.1c0,0,3-0.1,6.6-2.9c3.4-2.7,7.9-8.3,10.4-20.3l2.3,0.5c-2.2,10.3-6,17.6-11.4,21.8
			c-3.9,3-7.3,3.2-7.8,3.2C66.6,185,65.9,185,65.3,185z"/>
		
			<linearGradient id="SVGID_2_" gradientUnits="userSpaceOnUse" x1="85.0128" y1="486.8435" x2="134.7128" y2="486.8435" gradientTransform="matrix(1 0 0 1 0 -314.6142)">
			<stop  offset="0" style="stop-color:#C3972F"/>
			<stop  offset="0.12" style="stop-color:#C3972F"/>
			<stop  offset="0.32" style="stop-color:#E2BC53"/>
			<stop  offset="0.52" style="stop-color:#FCDF99"/>
			<stop  offset="0.71" style="stop-color:#D8B148"/>
			<stop  offset="0.91" style="stop-color:#B88A2D"/>
			<stop  offset="1" style="stop-color:#B88A2D"/>
		</linearGradient>
		<path class="st3" d="M106,185c-0.6,0-1.2,0-1.8-0.1c-0.5,0-3.9-0.2-7.8-3.2c-5.4-4.2-9.2-11.5-11.4-21.8l2.3-0.5
			c2.5,12,7,17.6,10.4,20.3c3.6,2.8,6.6,2.9,6.6,2.9h0.1c7,0.7,13.9-2.8,20.4-10.1c4.9-5.6,7.8-11.5,7.8-11.6l2.1,1
			c-0.1,0.2-3,6.2-8.1,12.1C120.2,181.2,113.1,185,106,185z"/>
		
			<linearGradient id="SVGID_3_" gradientUnits="userSpaceOnUse" x1="63.0128" y1="487.5935" x2="108.7128" y2="487.5935" gradientTransform="matrix(1 0 0 1 0 -314.6142)">
			<stop  offset="0" style="stop-color:#C3972F"/>
			<stop  offset="0.12" style="stop-color:#C3972F"/>
			<stop  offset="0.32" style="stop-color:#E2BC53"/>
			<stop  offset="0.52" style="stop-color:#FCDF99"/>
			<stop  offset="0.71" style="stop-color:#D8B148"/>
			<stop  offset="0.91" style="stop-color:#B88A2D"/>
			<stop  offset="1" style="stop-color:#B88A2D"/>
		</linearGradient>
		<path class="st4" d="M85,185.4c-1.4,0-4.1-0.3-7.4-2.2c-6-3.6-11-10.9-14.6-21.6l2.2-0.8c4.3,12.6,9.7,18,13.4,20.3c4,2.4,7,2,7,2
			h0.2c14.4-0.4,20.6-22.4,20.7-22.6l2.2,0.6c-0.1,0.2-1.7,6-5.2,11.9c-4.8,7.9-10.9,12.2-17.5,12.4C85.8,185.4,85.5,185.4,85,185.4
			z"/>
		
			<linearGradient id="SVGID_4_" gradientUnits="userSpaceOnUse" x1="43.4938" y1="487.7435" x2="64.0718" y2="487.7435" gradientTransform="matrix(1 0 0 1 0 -314.6142)">
			<stop  offset="0" style="stop-color:#C3972F"/>
			<stop  offset="0.12" style="stop-color:#C3972F"/>
			<stop  offset="0.32" style="stop-color:#E2BC53"/>
			<stop  offset="0.52" style="stop-color:#FCDF99"/>
			<stop  offset="0.71" style="stop-color:#D8B148"/>
			<stop  offset="0.91" style="stop-color:#B88A2D"/>
			<stop  offset="1" style="stop-color:#B88A2D"/>
		</linearGradient>
		<path class="st5" d="M46.9,185.6c-1.1,0-2.3-0.1-3.5-0.3l0.4-2.3c4.9,0.8,8.9-0.2,11.8-2.9c6.7-6.1,6.1-19.2,6.1-19.4l2.3-0.1
			c0,0.6,0.7,14.3-6.9,21.2C54.5,184.4,51,185.6,46.9,185.6z"/>
		
			<linearGradient id="SVGID_5_" gradientUnits="userSpaceOnUse" x1="107.3014" y1="487.5935" x2="127.8888" y2="487.5935" gradientTransform="matrix(1 0 0 1 0 -314.6142)">
			<stop  offset="0" style="stop-color:#C3972F"/>
			<stop  offset="0.12" style="stop-color:#C3972F"/>
			<stop  offset="0.32" style="stop-color:#E2BC53"/>
			<stop  offset="0.52" style="stop-color:#FCDF99"/>
			<stop  offset="0.71" style="stop-color:#D8B148"/>
			<stop  offset="0.91" style="stop-color:#B88A2D"/>
			<stop  offset="1" style="stop-color:#B88A2D"/>
		</linearGradient>
		<path class="st6" d="M124.4,185.4c-4.1,0-7.5-1.2-10.2-3.7c-7.5-6.9-6.9-20.6-6.9-21.2l2.3,0.1l-1.1-0.1l1.2,0.1
			c0,0.1-0.6,13.2,6.1,19.4c2.9,2.7,6.9,3.6,11.8,2.9l0.4,2.3C126.7,185.3,125.5,185.4,124.4,185.4z"/>
		
			<linearGradient id="SVGID_6_" gradientUnits="userSpaceOnUse" x1="54.7093" y1="520.1205" x2="115.8086" y2="516.7115" gradientTransform="matrix(1 0 0 1 0 -314.6142)">
			<stop  offset="0" style="stop-color:#C3972F"/>
			<stop  offset="0.12" style="stop-color:#C3972F"/>
			<stop  offset="0.32" style="stop-color:#E2BC53"/>
			<stop  offset="0.52" style="stop-color:#FCDF99"/>
			<stop  offset="0.71" style="stop-color:#D8B148"/>
			<stop  offset="0.91" style="stop-color:#B88A2D"/>
			<stop  offset="1" style="stop-color:#B88A2D"/>
		</linearGradient>
		<rect x="45.2" y="202.7" class="st7" width="80.9" height="2.1"/>
		
			<linearGradient id="SVGID_7_" gradientUnits="userSpaceOnUse" x1="54.3885" y1="514.3715" x2="115.4879" y2="510.9625" gradientTransform="matrix(1 0 0 1 0 -314.6142)">
			<stop  offset="0" style="stop-color:#C3972F"/>
			<stop  offset="0.12" style="stop-color:#C3972F"/>
			<stop  offset="0.32" style="stop-color:#E2BC53"/>
			<stop  offset="0.52" style="stop-color:#FCDF99"/>
			<stop  offset="0.71" style="stop-color:#D8B148"/>
			<stop  offset="0.91" style="stop-color:#B88A2D"/>
			<stop  offset="1" style="stop-color:#B88A2D"/>
		</linearGradient>
		<path class="st8" d="M49.5,197.2c-1.5,0-2.8,1.2-2.8,2.8s1.2,2.8,2.8,2.8c1.5,0,2.8-1.2,2.8-2.8S51,197.2,49.5,197.2z M49.5,201.1
			c-0.6,0-1.2-0.5-1.2-1.2s0.5-1.2,1.2-1.2s1.2,0.5,1.2,1.2C50.6,200.6,50.1,201.1,49.5,201.1z"/>
		
			<linearGradient id="SVGID_8_" gradientUnits="userSpaceOnUse" x1="54.4134" y1="514.8167" x2="115.5128" y2="511.4077" gradientTransform="matrix(1 0 0 1 0 -314.6142)">
			<stop  offset="0" style="stop-color:#C3972F"/>
			<stop  offset="0.12" style="stop-color:#C3972F"/>
			<stop  offset="0.32" style="stop-color:#E2BC53"/>
			<stop  offset="0.52" style="stop-color:#FCDF99"/>
			<stop  offset="0.71" style="stop-color:#D8B148"/>
			<stop  offset="0.91" style="stop-color:#B88A2D"/>
			<stop  offset="1" style="stop-color:#B88A2D"/>
		</linearGradient>
		<path class="st9" d="M57.5,197.2c-1.5,0-2.8,1.2-2.8,2.8s1.2,2.8,2.8,2.8s2.8-1.2,2.8-2.8S59,197.2,57.5,197.2z M57.5,201.1
			c-0.6,0-1.2-0.5-1.2-1.2s0.5-1.2,1.2-1.2s1.2,0.5,1.2,1.2S58.2,201.1,57.5,201.1z"/>
		
			<linearGradient id="SVGID_9_" gradientUnits="userSpaceOnUse" x1="54.4385" y1="515.2672" x2="115.5378" y2="511.8582" gradientTransform="matrix(1 0 0 1 0 -314.6142)">
			<stop  offset="0" style="stop-color:#C3972F"/>
			<stop  offset="0.12" style="stop-color:#C3972F"/>
			<stop  offset="0.32" style="stop-color:#E2BC53"/>
			<stop  offset="0.52" style="stop-color:#FCDF99"/>
			<stop  offset="0.71" style="stop-color:#D8B148"/>
			<stop  offset="0.91" style="stop-color:#B88A2D"/>
			<stop  offset="1" style="stop-color:#B88A2D"/>
		</linearGradient>
		<path class="st10" d="M65.6,197.2c-1.5,0-2.8,1.2-2.8,2.8s1.2,2.8,2.8,2.8s2.8-1.2,2.8-2.8S67.1,197.2,65.6,197.2z M65.6,201.1
			c-0.6,0-1.2-0.5-1.2-1.2s0.5-1.2,1.2-1.2s1.2,0.5,1.2,1.2C66.7,200.6,66.2,201.1,65.6,201.1z"/>
		
			<linearGradient id="SVGID_10_" gradientUnits="userSpaceOnUse" x1="54.4634" y1="515.7122" x2="115.5627" y2="512.3032" gradientTransform="matrix(1 0 0 1 0 -314.6142)">
			<stop  offset="0" style="stop-color:#C3972F"/>
			<stop  offset="0.12" style="stop-color:#C3972F"/>
			<stop  offset="0.32" style="stop-color:#E2BC53"/>
			<stop  offset="0.52" style="stop-color:#FCDF99"/>
			<stop  offset="0.71" style="stop-color:#D8B148"/>
			<stop  offset="0.91" style="stop-color:#B88A2D"/>
			<stop  offset="1" style="stop-color:#B88A2D"/>
		</linearGradient>
		<path class="st11" d="M73.6,197.2c-1.5,0-2.8,1.2-2.8,2.8s1.2,2.8,2.8,2.8s2.8-1.2,2.8-2.8S75.1,197.2,73.6,197.2z M73.6,201.1
			c-0.6,0-1.2-0.5-1.2-1.2s0.5-1.2,1.2-1.2s1.2,0.5,1.2,1.2S74.3,201.1,73.6,201.1z"/>
		
			<linearGradient id="SVGID_11_" gradientUnits="userSpaceOnUse" x1="54.4885" y1="516.1627" x2="115.5877" y2="512.7538" gradientTransform="matrix(1 0 0 1 0 -314.6142)">
			<stop  offset="0" style="stop-color:#C3972F"/>
			<stop  offset="0.12" style="stop-color:#C3972F"/>
			<stop  offset="0.32" style="stop-color:#E2BC53"/>
			<stop  offset="0.52" style="stop-color:#FCDF99"/>
			<stop  offset="0.71" style="stop-color:#D8B148"/>
			<stop  offset="0.91" style="stop-color:#B88A2D"/>
			<stop  offset="1" style="stop-color:#B88A2D"/>
		</linearGradient>
		<path class="st12" d="M81.7,197.2c-1.5,0-2.8,1.2-2.8,2.8s1.2,2.8,2.8,2.8s2.8-1.2,2.8-2.8S83.2,197.2,81.7,197.2z M81.7,201.1
			c-0.6,0-1.2-0.5-1.2-1.2s0.5-1.2,1.2-1.2s1.2,0.5,1.2,1.2C82.8,200.6,82.3,201.1,81.7,201.1z"/>
		
			<linearGradient id="SVGID_12_" gradientUnits="userSpaceOnUse" x1="54.5132" y1="516.6077" x2="115.6126" y2="513.1987" gradientTransform="matrix(1 0 0 1 0 -314.6142)">
			<stop  offset="0" style="stop-color:#C3972F"/>
			<stop  offset="0.12" style="stop-color:#C3972F"/>
			<stop  offset="0.32" style="stop-color:#E2BC53"/>
			<stop  offset="0.52" style="stop-color:#FCDF99"/>
			<stop  offset="0.71" style="stop-color:#D8B148"/>
			<stop  offset="0.91" style="stop-color:#B88A2D"/>
			<stop  offset="1" style="stop-color:#B88A2D"/>
		</linearGradient>
		<path class="st13" d="M89.7,197.2c-1.5,0-2.8,1.2-2.8,2.8s1.2,2.8,2.8,2.8s2.8-1.2,2.8-2.8S91.2,197.2,89.7,197.2z M89.7,201.1
			c-0.6,0-1.2-0.5-1.2-1.2s0.5-1.2,1.2-1.2s1.2,0.5,1.2,1.2C90.9,200.6,90.4,201.1,89.7,201.1z"/>
		
			<linearGradient id="SVGID_13_" gradientUnits="userSpaceOnUse" x1="54.5384" y1="517.0582" x2="115.6377" y2="513.6492" gradientTransform="matrix(1 0 0 1 0 -314.6142)">
			<stop  offset="0" style="stop-color:#C3972F"/>
			<stop  offset="0.12" style="stop-color:#C3972F"/>
			<stop  offset="0.32" style="stop-color:#E2BC53"/>
			<stop  offset="0.52" style="stop-color:#FCDF99"/>
			<stop  offset="0.71" style="stop-color:#D8B148"/>
			<stop  offset="0.91" style="stop-color:#B88A2D"/>
			<stop  offset="1" style="stop-color:#B88A2D"/>
		</linearGradient>
		<path class="st14" d="M97.8,197.2c-1.5,0-2.8,1.2-2.8,2.8s1.2,2.8,2.8,2.8s2.8-1.2,2.8-2.8S99.3,197.2,97.8,197.2z M97.8,201.1
			c-0.6,0-1.2-0.5-1.2-1.2s0.5-1.2,1.2-1.2s1.2,0.5,1.2,1.2C98.9,200.6,98.4,201.1,97.8,201.1z"/>
		
			<linearGradient id="SVGID_14_" gradientUnits="userSpaceOnUse" x1="54.5632" y1="517.5032" x2="115.6626" y2="514.0942" gradientTransform="matrix(1 0 0 1 0 -314.6142)">
			<stop  offset="0" style="stop-color:#C3972F"/>
			<stop  offset="0.12" style="stop-color:#C3972F"/>
			<stop  offset="0.32" style="stop-color:#E2BC53"/>
			<stop  offset="0.52" style="stop-color:#FCDF99"/>
			<stop  offset="0.71" style="stop-color:#D8B148"/>
			<stop  offset="0.91" style="stop-color:#B88A2D"/>
			<stop  offset="1" style="stop-color:#B88A2D"/>
		</linearGradient>
		<path class="st15" d="M105.8,197.2c-1.5,0-2.8,1.2-2.8,2.8s1.2,2.8,2.8,2.8s2.8-1.2,2.8-2.8S107.3,197.2,105.8,197.2z
			 M105.8,201.1c-0.6,0-1.2-0.5-1.2-1.2s0.5-1.2,1.2-1.2s1.2,0.5,1.2,1.2C107,200.6,106.5,201.1,105.8,201.1z"/>
		
			<linearGradient id="SVGID_15_" gradientUnits="userSpaceOnUse" x1="54.5884" y1="517.9537" x2="115.6877" y2="514.5447" gradientTransform="matrix(1 0 0 1 0 -314.6142)">
			<stop  offset="0" style="stop-color:#C3972F"/>
			<stop  offset="0.12" style="stop-color:#C3972F"/>
			<stop  offset="0.32" style="stop-color:#E2BC53"/>
			<stop  offset="0.52" style="stop-color:#FCDF99"/>
			<stop  offset="0.71" style="stop-color:#D8B148"/>
			<stop  offset="0.91" style="stop-color:#B88A2D"/>
			<stop  offset="1" style="stop-color:#B88A2D"/>
		</linearGradient>
		<path class="st16" d="M113.9,197.2c-1.5,0-2.8,1.2-2.8,2.8s1.2,2.8,2.8,2.8s2.8-1.2,2.8-2.8S115.4,197.2,113.9,197.2z
			 M113.9,201.1c-0.6,0-1.2-0.5-1.2-1.2s0.5-1.2,1.2-1.2s1.2,0.5,1.2,1.2C115,200.6,114.5,201.1,113.9,201.1z"/>
		
			<linearGradient id="SVGID_16_" gradientUnits="userSpaceOnUse" x1="54.6132" y1="518.3986" x2="115.7126" y2="514.9897" gradientTransform="matrix(1 0 0 1 0 -314.6142)">
			<stop  offset="0" style="stop-color:#C3972F"/>
			<stop  offset="0.12" style="stop-color:#C3972F"/>
			<stop  offset="0.32" style="stop-color:#E2BC53"/>
			<stop  offset="0.52" style="stop-color:#FCDF99"/>
			<stop  offset="0.71" style="stop-color:#D8B148"/>
			<stop  offset="0.91" style="stop-color:#B88A2D"/>
			<stop  offset="1" style="stop-color:#B88A2D"/>
		</linearGradient>
		<path class="st17" d="M121.9,197.2c-1.5,0-2.8,1.2-2.8,2.8s1.2,2.8,2.8,2.8s2.8-1.2,2.8-2.8S123.4,197.2,121.9,197.2z
			 M121.9,201.1c-0.6,0-1.2-0.5-1.2-1.2s0.5-1.2,1.2-1.2s1.2,0.5,1.2,1.2S122.6,201.1,121.9,201.1z"/>
		
			<linearGradient id="SVGID_17_" gradientUnits="userSpaceOnUse" x1="54.281" y1="512.4444" x2="115.3802" y2="509.0355" gradientTransform="matrix(1 0 0 1 0 -314.6142)">
			<stop  offset="0" style="stop-color:#C3972F"/>
			<stop  offset="0.12" style="stop-color:#C3972F"/>
			<stop  offset="0.32" style="stop-color:#E2BC53"/>
			<stop  offset="0.52" style="stop-color:#FCDF99"/>
			<stop  offset="0.71" style="stop-color:#D8B148"/>
			<stop  offset="0.91" style="stop-color:#B88A2D"/>
			<stop  offset="1" style="stop-color:#B88A2D"/>
		</linearGradient>
		<rect x="45.2" y="194.9" class="st18" width="80.9" height="2.3"/>
		
			<linearGradient id="SVGID_18_" gradientUnits="userSpaceOnUse" x1="125.0838" y1="490.1435" x2="135.3538" y2="490.1435" gradientTransform="matrix(1 0 0 1 0 -314.6142)">
			<stop  offset="0" style="stop-color:#C3972F"/>
			<stop  offset="0.12" style="stop-color:#C3972F"/>
			<stop  offset="0.32" style="stop-color:#E2BC53"/>
			<stop  offset="0.52" style="stop-color:#FCDF99"/>
			<stop  offset="0.71" style="stop-color:#D8B148"/>
			<stop  offset="0.91" style="stop-color:#B88A2D"/>
			<stop  offset="1" style="stop-color:#B88A2D"/>
		</linearGradient>
		<polygon class="st19" points="127.2,189 125.1,189 133.1,162 135.3,162 		"/>
		
			<linearGradient id="SVGID_19_" gradientUnits="userSpaceOnUse" x1="102.2738" y1="490.2935" x2="109.3738" y2="490.2935" gradientTransform="matrix(1 0 0 1 0 -314.6142)">
			<stop  offset="0" style="stop-color:#C3972F"/>
			<stop  offset="0.12" style="stop-color:#C3972F"/>
			<stop  offset="0.32" style="stop-color:#E2BC53"/>
			<stop  offset="0.52" style="stop-color:#FCDF99"/>
			<stop  offset="0.71" style="stop-color:#D8B148"/>
			<stop  offset="0.91" style="stop-color:#B88A2D"/>
			<stop  offset="1" style="stop-color:#B88A2D"/>
		</linearGradient>
		<polygon class="st20" points="104.4,189 102.3,189 107.1,162.3 109.4,162.3 		"/>
		<g>
			
				<linearGradient id="SVGID_20_" gradientUnits="userSpaceOnUse" x1="36.3738" y1="490.3435" x2="46.6438" y2="490.3435" gradientTransform="matrix(1 0 0 1 0 -314.6142)">
				<stop  offset="0" style="stop-color:#C3972F"/>
				<stop  offset="0.12" style="stop-color:#C3972F"/>
				<stop  offset="0.32" style="stop-color:#E2BC53"/>
				<stop  offset="0.52" style="stop-color:#FCDF99"/>
				<stop  offset="0.71" style="stop-color:#D8B148"/>
				<stop  offset="0.91" style="stop-color:#B88A2D"/>
				<stop  offset="1" style="stop-color:#B88A2D"/>
			</linearGradient>
			<polygon class="st21" points="44.5,189.2 46.6,189.2 38.6,162.2 36.4,162.2 			"/>
			
				<linearGradient id="SVGID_21_" gradientUnits="userSpaceOnUse" x1="62.3538" y1="490.5435" x2="69.4538" y2="490.5435" gradientTransform="matrix(1 0 0 1 0 -314.6142)">
				<stop  offset="0" style="stop-color:#C3972F"/>
				<stop  offset="0.12" style="stop-color:#C3972F"/>
				<stop  offset="0.32" style="stop-color:#E2BC53"/>
				<stop  offset="0.52" style="stop-color:#FCDF99"/>
				<stop  offset="0.71" style="stop-color:#D8B148"/>
				<stop  offset="0.91" style="stop-color:#B88A2D"/>
				<stop  offset="1" style="stop-color:#B88A2D"/>
			</linearGradient>
			<polygon class="st22" points="67.3,189.2 69.4,189.2 64.6,162.6 62.3,162.6 			"/>
		</g>
		
			<linearGradient id="SVGID_22_" gradientUnits="userSpaceOnUse" x1="84.4007" y1="490.2935" x2="86.8568" y2="490.2935" gradientTransform="matrix(1 0 0 1 0 -314.6142)">
			<stop  offset="0" style="stop-color:#C3972F"/>
			<stop  offset="0.12" style="stop-color:#C3972F"/>
			<stop  offset="0.32" style="stop-color:#E2BC53"/>
			<stop  offset="0.52" style="stop-color:#FCDF99"/>
			<stop  offset="0.71" style="stop-color:#D8B148"/>
			<stop  offset="0.91" style="stop-color:#B88A2D"/>
			<stop  offset="1" style="stop-color:#B88A2D"/>
		</linearGradient>
		<polygon class="st23" points="84.7,189.2 86.8,189.1 86.6,162.1 84.4,162.1 		"/>
		
			<radialGradient id="SVGID_23_" cx="36.4838" cy="473.9335" r="3.2748" gradientTransform="matrix(1 0 0 1 0 -314.6142)" gradientUnits="userSpaceOnUse">
			<stop  offset="0.1625" style="stop-color:#FCDF99"/>
			<stop  offset="1" style="stop-color:#B88A2D"/>
		</radialGradient>
		<circle class="st24" cx="36.5" cy="159.3" r="3.3"/>
		
			<radialGradient id="SVGID_24_" cx="62.8839" cy="473.9335" r="3.2743" gradientTransform="matrix(1 0 0 1 0 -314.6142)" gradientUnits="userSpaceOnUse">
			<stop  offset="0.1625" style="stop-color:#FCDF99"/>
			<stop  offset="1" style="stop-color:#B88A2D"/>
		</radialGradient>
		<circle class="st25" cx="62.9" cy="159.3" r="3.3"/>
		
			<radialGradient id="SVGID_25_" cx="85.6939" cy="473.9335" r="3.2737" gradientTransform="matrix(1 0 0 1 0 -314.6142)" gradientUnits="userSpaceOnUse">
			<stop  offset="0.1625" style="stop-color:#FCDF99"/>
			<stop  offset="1" style="stop-color:#B88A2D"/>
		</radialGradient>
		<circle class="st26" cx="85.7" cy="159.3" r="3.3"/>
		
			<radialGradient id="SVGID_26_" cx="108.5039" cy="473.9335" r="3.27" gradientTransform="matrix(1 0 0 1 0 -314.6142)" gradientUnits="userSpaceOnUse">
			<stop  offset="0.1625" style="stop-color:#FCDF99"/>
			<stop  offset="1" style="stop-color:#B88A2D"/>
		</radialGradient>
		<circle class="st27" cx="108.5" cy="159.3" r="3.3"/>
		
			<radialGradient id="SVGID_27_" cx="135.1128" cy="473.9335" r="3.2705" gradientTransform="matrix(1 0 0 1 0 -314.6142)" gradientUnits="userSpaceOnUse">
			<stop  offset="0.1625" style="stop-color:#FCDF99"/>
			<stop  offset="1" style="stop-color:#B88A2D"/>
		</radialGradient>
		<circle class="st28" cx="135.1" cy="159.3" r="3.3"/>
		
			<linearGradient id="SVGID_28_" gradientUnits="userSpaceOnUse" x1="44.4128" y1="505.0935" x2="127.2128" y2="505.0935" gradientTransform="matrix(1 0 0 1 0 -314.6142)">
			<stop  offset="0" style="stop-color:#C3972F"/>
			<stop  offset="0.12" style="stop-color:#C3972F"/>
			<stop  offset="0.32" style="stop-color:#E2BC53"/>
			<stop  offset="0.52" style="stop-color:#FCDF99"/>
			<stop  offset="0.71" style="stop-color:#D8B148"/>
			<stop  offset="0.91" style="stop-color:#B88A2D"/>
			<stop  offset="1" style="stop-color:#B88A2D"/>
		</linearGradient>
		<polygon class="st29" points="127.2,189 44.4,189 45.2,191.9 126.5,191.9 		"/>
	</g>
</g>
<g>
	<g>
		<path class="st1" d="M157.9,227.6v55.8H150v-55.8H157.9z"/>
		<path class="st1" d="M164.9,283.5v-55.8h9.1c2,7.9,8.1,35.4,8.7,38.4h0.1c-0.4-6.9-0.4-14.7-0.4-23.9v-14.5h7.3v55.8h-8.8
			c-1.6-6.7-8.4-37.3-8.9-39.6h-0.1c0.4,6.8,0.3,14.3,0.3,24.4v15.3L164.9,283.5L164.9,283.5z"/>
		<path class="st1" d="M196.6,227.6h19.9v8h-12v14.7H216v8h-11.5v25.2h-7.9V227.6z"/>
		<path class="st1" d="M228.7,227.6v55.8h-7.9v-55.8H228.7z"/>
		<path class="st1" d="M235.7,283.5v-55.8h9.1c2,7.9,8.1,35.4,8.7,38.4h0.1c-0.4-7-0.4-14.8-0.4-24v-14.5h7.3v55.8h-8.8
			c-1.6-6.7-8.4-37.3-8.9-39.6h-0.1c0.4,6.8,0.3,14.3,0.3,24.4v15.3L235.7,283.5L235.7,283.5z"/>
		<path class="st1" d="M275.3,227.6v55.8h-7.9v-55.8H275.3z"/>
		<path class="st1" d="M287,235.6h-8.2v-8h24.4v8h-8.3v47.8H287V235.6L287,235.6z"/>
		<path class="st1" d="M325.7,258h-11.2v17.6h13l-1,7.9h-19.8v-55.8h19.8v8h-11.9v14.4h11.2L325.7,258L325.7,258z"/>
		<path class="st1" d="M360.6,258h-11.2v17.6h13l-1,7.9h-19.8v-55.8h19.6v8h-11.9v14.4h11.2L360.6,258L360.6,258z"/>
		<path class="st1" d="M366.4,227.6h10.9c10.9,0,13.5,6.1,13.5,16.5v21.4c0,8.5-1.3,17.9-13.5,17.9h-10.9V227.6L366.4,227.6z
			 M374.3,276.1h2.5c5.2,0,6-3.6,6-9.4v-23.3c0-5.1-0.8-8.4-6-8.4h-2.5V276.1z"/>
		<path class="st1" d="M404.3,227.6v42.5c0,4.1,1.2,6.4,4.3,6.4c3.1,0,4.1-2.6,4.1-6.4v-42.5h7.9v42.3c0,8.8-3.6,14.4-12.2,14.4
			c-8.1,0-12-4.8-12-14.3v-42.3L404.3,227.6L404.3,227.6z"/>
		<path class="st1" d="M449.4,266.8v2.2c0,6.4-1,15.3-11.8,15.3c-9.5,0-11.5-6.5-11.5-15v-28.2c0-8.6,3.6-14.3,11.6-14.3
			c9.6,0,11.4,6.9,11.4,14.7v2.5h-7.9v-3.5c0-3.7-0.8-5.8-3.5-5.8s-3.6,2-3.6,5.9v29.5c0,3.6,0.7,6.5,3.7,6.5c2.9,0,3.6-2.5,3.6-6.6
			v-3.1L449.4,266.8L449.4,266.8z"/>
		<path class="st1" d="M460.9,268.5l-1.8,14.9h-8l8.2-55.8h11.1l8.5,55.8h-8.2l-2-14.9H460.9z M467.8,260.6
			c-1.2-9.5-2.3-18.5-2.9-24.8h-0.3c-0.2,4.6-1.8,16.6-2.8,24.8H467.8z"/>
		<path class="st1" d="M487.9,235.6h-8.2v-8h24.4v8h-8.3v47.8h-7.9V235.6L487.9,235.6z"/>
		<path class="st1" d="M515.3,227.6v55.8h-7.9v-55.8H515.3z"/>
		<path class="st1" d="M546.1,242.4v26.1c0,10.7-4.2,15.8-12.8,15.8c-8.3,0-12-5.2-12-15.6v-26.3c0-10.7,4.9-15.6,12.5-15.6
			C541.5,226.8,546.1,231.7,546.1,242.4z M529.2,241.6v28.1c0,4.6,1.5,6.8,4.4,6.8c3.1,0,4.4-2,4.4-6.9v-28c0-4.4-1.2-6.9-4.5-6.9
			C530.8,234.6,529.2,236.9,529.2,241.6z"/>
		<path class="st1" d="M551.9,283.5v-55.8h9.1c2,7.9,8.1,35.4,8.7,38.4h0.1c-0.4-6.9-0.4-14.7-0.4-23.9v-14.5h7.3v55.8h-8.8
			c-1.6-6.7-8.4-37.3-8.9-39.6h-0.1c0.4,6.8,0.3,14.3,0.3,24.4v15.3L551.9,283.5L551.9,283.5z"/>
	</g>
</g>
<text transform="matrix(1 0 0 1 170.6621 310.8357)" class="st30 st31 st32">AN AFFILIATE OF INFINITE GROUP OF COMPANIES</text>
<g>
	<text transform="matrix(0.9158 0 0 1 226.4747 338.5093)" class="st33 st31 st34">UAE  |</text>
	<text transform="matrix(0.9158 0 0 1 355.504 338.5093)" class="st33 st31 st34">INDIA | SRI LANKA</text>
	<text transform="matrix(0.9158 0 0 1 280.735 338.5093)" class="st33 st31 st34">QATAR  |</text>
</g>
</svg>
